-
http:// www . torrentkit . com        thanks for supporting with server cost, 
http : // www .torrentkit. com       the fast  and The Hottest Private Tracker on the net

Please Seed back to make the speed Faster!!!

and don't forget to visit      ...... www .torrentkit .com..........
-      *********** ****    ****      ***      ******** *********** ****    *** **********
           *+*     +*+*+* *+*+*+   *+* *+*   *+*    *+*    *+*     *+*+*   *+* *+*        
           +*+     +*+ +*+*+ +*+  +*+   +*+  +*+           +*+     *+*+*+  +*+ +*+        
           +$+     +$+  +*+  +$+ +$++*++$++* *$*           +$+     +$+ +*+ +$+ +$++*++$  
           +$+     +$+       +$+ +$+     +$+ +$+   +$+$    +$+     +$+  +$+$+$ +$+        
           $+$     $+$       $+$ $+$     $+$ $+$    $+$    $+$     $+$   $+$+$ $+$        
       $$$$$$$$$$$ $$$       $$$ $$$     $$$  $$$$$$$$ $$$$$$$$$$$ $$$    $$$$ $$$$$$$$$$     
                                                



                           Another Fine Release Brought to you from - IMAGiNE                   
                                                 

********************************************************************************************************************                                
                              Tron legacy 2011 PPV XViD - IMAGiNE
********************************************************************************************************************

Ripper ...........:IMAGiNE                                         IMDB Rating.......:7.3/10                             
Video Codec.......:XVID                                            Release Date......:27/02/11
Audio Codec.......:MP3                                             Theatre Date......:17/12/10
Audio Bitrate.....:128                                             Runtime...........:2h 3mn
Subtitles.........:NIL                                             Language..........:ENGLISH
Resolution........:720 x 356                                       IMDb URL..........:http://www.imdb.com/title/tt1104001/


[color=yellow]DETAILS:[/color]

Video
ID                               : 0
Format                           : MPEG-4 Visual
Format profile                   : Advanced Simple@L5
Format settings, BVOP            : Yes
Format settings, QPel            : No
Format settings, GMC             : No warppoints
Format settings, Matrix          : Default (MPEG)
Muxing mode                      : Packed bitstream
Codec ID                         : XVID
Codec ID/Hint                    : XviD
Duration                         : 2h 3mn
Bit rate                         : 1 129 Kbps
Width                            : 720 pixels
Height                           : 356 pixels
Display aspect ratio             : 2.022
Frame rate                       : 29.970 fps
Color space                      : YUV
Chroma subsampling               : 4:2:0
Bit depth                        : 8 bits
Scan type                        : Progressive
Compression mode                 : Lossy
Bits/(Pixel*Frame)               : 0.147
Stream size                      : 1 001 MiB (89%)
Writing library                  : XviD 1.2.1 (UTC 2008-12-04)

Audio
ID                               : 1
Format                           : MPEG Audio
Format version                   : Version 1
Format profile                   : Layer 3
Mode                             : Joint stereo
Mode extension                   : MS Stereo
Codec ID                         : 55
Codec ID/Hint                    : MP3
Duration                         : 2h 3mn
Bit rate mode                    : Constant
Bit rate                         : 128 Kbps
Channel(s)                       : 2 channels
Sampling rate                    : 44.1 KHz
Compression mode                 : Lossy
Stream size                      : 113 MiB (10%)
Alignment                        : Aligned on interleaves
Interleave, duration             : 26 ms (0.78 video frame)
Writing library                  : LAME3.98.2


[color=yellow]SOURCES:[/color]

VIDEO: IFLIX ... Thanks
AUDIO: IFLIX ... Thanks

[color=yellow]NOTES:[/color]

IMAGiNE bringing you another release.......... Tron legacy 2011 

Here we are with a nice encode of this movie for you all.Now for the video we just made a script 
containing resize,white balance,rgb eq,sharpness,chroma,brightness,contrast ect.
With the audio it was just a case of muxing to our audio for this one...
FYI Now we blur out the watermark that someone had to put there for the last 22mins...

Enjoy ;)

[color=yellow]SCREENS:[/color]

[IMG]http://www.grinshare.com/img/1402TN.png[/IMG]
[IMG]http://www.grinshare.com/img/6ETK1G.png[/IMG]
[IMG]http://www.grinshare.com/img/IXJ014.png[/IMG]
[IMG]http://www.grinshare.com/img/07MYNB.png[/IMG]
[IMG]http://www.grinshare.com/img/8CQGF1.png[/IMG]
[IMG]http://www.grinshare.com/img/Q7Z2FI.png[/IMG]

[color=yellow]GREETS:[/color]

FLAWL3SS,ViSiON,FUSiON,Rx,SecretMyth,BirdFlu,ELEKTRI4KA,SERENiTY and Autotron
And to all the other p2p grps past and present 


[COLOR=RED]Looking for these,syncers,cammers,silver supplier,Audio.....Have anything to offer????......
Contact us imaginegroup@hushmail.com[/COLOR]